<svg width="20" height="14" viewBox="0 0 20 14" fill="none" xmlns="http://www.w3.org/2000/svg">
<path d="M16.9688 4.96875V3H15V4.96875H16.9688ZM16.9688 7.96875V6H15V7.96875H16.9688ZM13.9688 4.96875V3H12V4.96875H13.9688ZM13.9688 7.96875V6H12V7.96875H13.9688ZM13.9688 12V9.98438H6V12H13.9688ZM4.96875 4.96875V3H3V4.96875H4.96875ZM4.96875 7.96875V6H3V7.96875H4.96875ZM6 6V7.96875H7.96875V6H6ZM6 3V4.96875H7.96875V3H6ZM9 6V7.96875H10.9688V6H9ZM9 3V4.96875H10.9688V3H9ZM18 0C18.5312 0 18.9844 0.203125 19.3594 0.609375C19.7656 0.984375 19.9688 1.4375 19.9688 1.96875V12C19.9688 12.5312 19.7656 13 19.3594 13.4062C18.9844 13.7812 18.5312 13.9688 18 13.9688H1.96875C1.4375 13.9688 0.96875 13.7812 0.5625 13.4062C0.1875 13 0 12.5312 0 12V1.96875C0 1.4375 0.1875 0.984375 0.5625 0.609375C0.96875 0.203125 1.4375 0 1.96875 0H18Z" fill="#154580"/>
</svg>
