<svg width="14" height="19" viewBox="0 0 14 19" fill="none" xmlns="http://www.w3.org/2000/svg">
<path d="M12.2812 9H13.9688C13.9688 10.6875 13.375 12.1719 12.1875 13.4531C11.0312 14.7031 9.625 15.4531 7.96875 15.7031V18.9844H6V15.7031C4.34375 15.4531 2.92188 14.7031 1.73438 13.4531C0.578125 12.1719 0 10.6875 0 9H1.6875C1.6875 10.4688 2.20312 11.6875 3.23438 12.6562C4.29688 13.5938 5.54688 14.0625 6.98438 14.0625C8.42188 14.0625 9.65625 13.5938 10.6875 12.6562C11.75 11.6875 12.2812 10.4688 12.2812 9ZM9.09375 11.1094C8.5 11.7031 7.79688 12 6.98438 12C6.17188 12 5.46875 11.7031 4.875 11.1094C4.28125 10.5156 3.98438 9.8125 3.98438 9V3C3.98438 2.1875 4.28125 1.48438 4.875 0.890625C5.46875 0.296875 6.17188 0 6.98438 0C7.79688 0 8.5 0.296875 9.09375 0.890625C9.6875 1.48438 9.98438 2.1875 9.98438 3V9C9.98438 9.8125 9.6875 10.5156 9.09375 11.1094Z" fill="#154580"/>
</svg>
