<svg width="22" height="26" viewBox="0 0 22 26" fill="none" xmlns="http://www.w3.org/2000/svg">
<path d="M18.6875 18L21.375 20.6875V22H0V20.6875L2.6875 18V11.375C2.6875 9.29167 3.20833 7.47917 4.25 5.9375C5.33333 4.39583 6.8125 3.39583 8.6875 2.9375V2C8.6875 1.45833 8.875 1 9.25 0.625C9.625 0.208333 10.1042 0 10.6875 0C11.2708 0 11.75 0.208333 12.125 0.625C12.5 1 12.6875 1.45833 12.6875 2V2.9375C14.5625 3.39583 16.0208 4.39583 17.0625 5.9375C18.1458 7.47917 18.6875 9.29167 18.6875 11.375V18ZM10.6875 26C9.9375 26 9.29167 25.75 8.75 25.25C8.25 24.75 8 24.125 8 23.375H13.375C13.375 24.0833 13.1042 24.7083 12.5625 25.25C12.0208 25.75 11.3958 26 10.6875 26Z" fill="#154580"/>
</svg>
