<svg width="18" height="12" viewBox="0 0 18 12" fill="none" xmlns="http://www.w3.org/2000/svg">
<path d="M11.0156 6.98438V5.01562H8.01562V2.01562H6V5.01562H3V6.98438H6V9.98438H8.01562V6.98438H11.0156ZM14.0156 4.5L18 0.515625V11.4844L14.0156 7.5V11.0156C14.0156 11.2969 13.9062 11.5312 13.6875 11.7188C13.5 11.9062 13.2656 12 12.9844 12H0.984375C0.703125 12 0.46875 11.9062 0.28125 11.7188C0.09375 11.5312 0 11.2969 0 11.0156V0.984375C0 0.703125 0.09375 0.46875 0.28125 0.28125C0.46875 0.09375 0.703125 0 0.984375 0H12.9844C13.2656 0 13.5 0.09375 13.6875 0.28125C13.9062 0.46875 14.0156 0.703125 14.0156 0.984375V4.5Z" fill="#154580"/>
</svg>
